<svg xmlns="http://www.w3.org/2000/svg" xmlns:xlink="http://www.w3.org/1999/xlink" width="12.445" height="7.261" viewBox="0 0 12.445 7.261"><defs><clipPath id="a"><rect width="12.445" height="7.261" fill="none"/></clipPath></defs><g clip-path="url(#a)"><rect width="12.445" height="7.261" fill="#3d9635"/><g clip-path="url(#a)"><path d="M93.378,697.56c-.012.169-.028.469.116.5.174.016.078-.3.141-.352.012-.027.034-.027.036.007v.265a.125.125,0,0,0,.1.127c.046,0,.076,0,.094.043q.011.228.021.456s.106.032.112-.256a2.687,2.687,0,0,1-.011-.343c0-.032.042-.035.071-.017.046.032.066.071.136.055.108-.031.172-.081.174-.165a.718.718,0,0,0-.049-.236c0-.015-.021-.051-.016-.065.019.031.048.028.055,0a.236.236,0,0,0-.092-.143c-.038-.033-.095-.026-.115.045a.389.389,0,0,0,.089.254.254.254,0,0,1,.022.128.07.07,0,0,1-.088-.017s-.086-.065-.086-.078a.31.31,0,0,0-.007-.2.265.265,0,0,0-.057-.11c-.021-.025-.05-.025-.064,0a.383.383,0,0,0,.007.27c.019.058.05.094.036.094-.012.033-.036.025-.054-.013a.937.937,0,0,1-.03-.248c-.008-.065-.017-.2-.059-.241-.026-.035-.065-.017-.079.016a1.251,1.251,0,0,0,0,.188,2.043,2.043,0,0,1,.053.3c0,.143-.082.062-.079-.01a.652.652,0,0,0,0-.274c-.014-.038-.031-.047-.066-.039s-.1.074-.117.2a1.029,1.029,0,0,0-.024.124c-.01.065-.053.112-.083-.01-.027-.088-.042-.305-.086-.255" transform="translate(-89.856 -695.502)" fill="#fff"/><path d="M94.2,709.966c-.154.077-.3.146-.454.219a.465.465,0,0,1,.36-.291c.093,0,.07.036.095.073" transform="translate(-90.209 -707.212)" fill="#fff"/><path d="M97.692,697.31a.135.135,0,0,0-.029.009.085.085,0,0,0-.061.106c.044.267.072.469.116.734a.057.057,0,0,1-.053.069c-.058-.039-.072-.119-.169-.114a.193.193,0,0,0-.162.152.387.387,0,0,0,0,.174.143.143,0,0,0,.162.041c.043-.018.079-.061.094-.051h0c.009.018,0,.156-.2.262-.124.055-.222.069-.275-.032-.032-.064,0-.3-.078-.249-.239.617.56.7.649.026.006-.019.024-.038.036-.033s.01.01.012.024c-.019.613-.618.653-.719.462a.578.578,0,0,1-.036-.207.108.108,0,0,0-.025-.068c-.024-.018-.057.03-.064.113a.735.735,0,0,0-.007.148c.032.487.8.278.93-.123a1.365,1.365,0,0,0,.019-.382h0c.078.082.185.01.209-.018a.036.036,0,0,1,.054-.006.123.123,0,0,0,.186-.052,1.759,1.759,0,0,0,.026-.23.221.221,0,0,0-.083.035.023.023,0,0,0-.006.012c0,.02-.006.044-.01.065a.04.04,0,0,1,0,.006.018.018,0,0,1-.008.006.025.025,0,0,1-.039-.017c-.018-.083-.094-.1-.141.035-.032.026-.088.03-.094-.006.008-.088-.028-.1-.1-.059-.022-.174-.046-.339-.068-.513.03,0,.056.022.084-.012a.982.982,0,0,0-.126-.294h0l-.005-.006h0s0,0,0,0-.007,0-.01,0m-.215.952a.041.041,0,0,1,.042.026.046.046,0,0,1-.009.046h0c-.006.01-.026.006-.042.006a.039.039,0,0,1-.038-.019c-.005-.016.01-.032.017-.045h0s0,0,0,0a.058.058,0,0,1,.026-.01" transform="translate(-93.117 -695.516)" fill="#fff"/><path d="M111.4,697.11a.154.154,0,0,0-.054.014.105.105,0,0,0-.018.138c.03.013.061.045.04.061-.086.091-.309.245-.321.274h0s0,0,0,0h0a.582.582,0,0,0,.167,0v0h0a2.286,2.286,0,0,0,.276-.278c-.011-.01-.023-.017-.034-.027a.019.019,0,0,1,0-.032.092.092,0,0,0,.009-.139.134.134,0,0,0-.069-.013m-.01.08c.014,0,.03.013.039.03s0,.038-.009.042a.046.046,0,0,1-.042-.029c-.009-.02,0-.039.01-.042h0" transform="translate(-106.284 -695.33)" fill="#fff"/><path d="M92.995,716.826a.451.451,0,0,0-.046.4.1.1,0,0,0,.1.032.177.177,0,0,0,.064-.171c-.018-.029-.032-.033-.05-.009-.037.076-.053.023-.057-.02a.992.992,0,0,1,.01-.214c.01-.06,0-.042-.019-.017" transform="translate(-89.438 -713.635)" fill="#fff"/><path d="M134.478,697.792c-.082-.178-.2-.353-.233-.42s-.311-.465-.351-.511c-.089-.106.145.045-.03-.167-.066-.057-.07-.06-.126-.106-.027-.02-.1-.055-.107,0a.333.333,0,0,0,.006.126.437.437,0,0,0,.07.107,7.906,7.906,0,0,1,.763,1.225c.038-.017.03-.227.007-.258" transform="translate(-127.276 -694.818)" fill="#fff"/><path d="M140.517,698.9c-.017.017.039.1.113.1a.426.426,0,0,0,.329-.263.469.469,0,0,0,.075-.2,4.447,4.447,0,0,0-.082-1.026.164.164,0,0,1,0-.071c.008-.01.035,0,.049-.023s-.055-.2-.1-.267c-.015-.03-.021-.051-.047,0a.388.388,0,0,0-.043.194c.058.4.076.758.115,1.16a.161.161,0,0,1-.029.119,1.125,1.125,0,0,1-.385.281" transform="translate(-133.676 -695.335)" fill="#fff"/><path d="M163.075,698.674c-.088.051-.088.11-.017.112a.439.439,0,0,0,.367-.175.582.582,0,0,0,.059-.226,5.315,5.315,0,0,0-.066-1.108.5.5,0,0,1-.012-.1c.008-.019.048,0,.061-.02s-.1-.181-.146-.249c-.015-.03-.02-.051-.046,0a.309.309,0,0,0-.026.193,10.654,10.654,0,0,1,.123,1.252.364.364,0,0,1-.025.1.767.767,0,0,1-.119.14c-.041.029-.125.058-.153.08" transform="translate(-154.582 -695.109)" fill="#fff"/><path d="M161.2,698.221c0-.1,0-.191,0-.268s-.039-.364-.05-.424-.024-.155-.041-.229a.609.609,0,0,1-.015-.13c.006-.02.035,0,.047-.023a.807.807,0,0,0-.116-.322c-.016-.031-.046-.02-.082.029-.035.032-.022.1-.009.174a6.409,6.409,0,0,1,.139,1.375c-.005.036.129-.112.127-.181" transform="translate(-152.647 -695.049)" fill="#fff"/><path d="M152.934,704.09c-.055,0-.171-.107-.205-.17a.12.12,0,0,1,.007-.091c.021-.013.052-.029.075-.013,0,0,.025.033.02.037.03.015.043.006.046-.007s-.009-.033-.009-.056a.064.064,0,0,1,.114-.033.231.231,0,0,1,.031.113c0,.019-.03,0-.047,0s-.021.023-.022.04c0,.048-.009.122-.009.178" transform="translate(-145.024 -701.485)" fill="#fff"/><path d="M137.766,698.332a4.816,4.816,0,0,0-.007-.507c-.005-.194-.038-.569-.052-.631-.017-.119.048.013.039-.057a.755.755,0,0,0-.163-.306c-.025-.035-.024-.042-.062.009a.365.365,0,0,0,.005.238,4.363,4.363,0,0,1,.1.69,6.13,6.13,0,0,1,.006.733c.042,0,.108-.068.132-.168" transform="translate(-130.875 -695.046)" fill="#fff"/><path d="M155.39,698.136c-.1-.164-.244-.355-.283-.42s-.372-.552-.413-.6c-.122-.126.056-.02-.023-.12a.96.96,0,0,0-.144-.139c-.028-.017-.046-.054-.055.006a1.2,1.2,0,0,0,0,.159.2.2,0,0,0,.049.1,9.161,9.161,0,0,1,.873,1.267c.037-.017.024-.227,0-.256" transform="translate(-146.645 -695.074)" fill="#fff"/><path d="M106.852,742.645h0a.082.082,0,0,0-.028.151c-.909,0-2.3-.014-2.6-.014-.168,0-.7-.02-.707-.02a.538.538,0,0,0,.493.2l2.806,0a.184.184,0,0,0,.034.194l0,0h0c.036.009.051-.017.063-.035a3.822,3.822,0,0,0,.408,0h0c.02.029.04.056.078.052.066-.015.119-.022.121-.156,0,0-.007-.229-.158-.215l-.135.015c-.116-.013-.2-.015-.331-.02.012-.014.033-.077.007-.1a.047.047,0,0,0-.031-.009h0l0,0s0,0,0,0a.246.246,0,0,1-.014-.039h0m.062.327h0c.132.006.256,0,.39.007a.048.048,0,0,1,0,.067s0,0,0,0h0l-.111,0s0,0,0-.007c-.01-.031-.084-.028-.1,0h0s0,0,0,0v0a.012.012,0,0,0,0,0,.951.951,0,0,1-.169-.006c-.016-.02-.015-.058.005-.068" transform="translate(-99.285 -737.655)" fill="#fff"/><path d="M117.86,696.429c-.088.252.051.53.147.5.07.028.114-.106.143-.25.02-.041.034-.045.044-.025,0,.194.014.238.063.3a.158.158,0,0,0,.21,0c.007-.006.087-.085.087-.085a.051.051,0,0,1,.072,0c.026.023.022.065.079.093a.17.17,0,0,0,.172-.036c.032-.054.039-.072.053-.093s.061-.017.061-.007-.025.033-.011.064.034.007.05,0c.056-.028.1-.149.1-.149,0-.046-.023-.042-.041-.032s-.022.017-.044.031-.081.022-.106-.019a1.664,1.664,0,0,1-.049-.168s-.035-.077,0-.083c.016,0,.052.013.058-.017s-.038-.113-.075-.154a.082.082,0,0,0-.122,0c-.03.028-.027.061-.033.09a.14.14,0,0,0,.029.122.372.372,0,0,1,.068.248.1.1,0,0,1-.09.046c-.023-.006-.062-.016-.083-.167-.015-.116,0-.278-.045-.352-.018-.047-.03-.091-.073-.012a.179.179,0,0,0-.025.172.509.509,0,0,1,.027.268.47.47,0,0,1-.051.074.086.086,0,0,1-.109.014.118.118,0,0,1-.065-.091,1.312,1.312,0,0,0-.011-.3.053.053,0,0,0-.089-.019.667.667,0,0,0-.163.335c-.025.081-.053.058-.071.025-.046-.042-.049-.378-.1-.323" transform="translate(-112.593 -694.509)" fill="#fff"/><path d="M108.941,706.506s0,0,0,0h0c-.006,0-.014.013-.029.025-.026.031-.03.051-.029.109,0,.007.049.139.089.233a.724.724,0,0,1,.034.314.767.767,0,0,1-.317.33.162.162,0,0,1-.132,0h0a.08.08,0,0,1-.036-.075h0a.754.754,0,0,0,.319-.329.344.344,0,0,0,.009-.238.24.24,0,0,0-.054-.109s0,0,0,0c.018-.009.064.026.071,0a.343.343,0,0,0-.091-.168.077.077,0,0,0-.113-.007c-.038.022-.046.1-.028.167.021.049.077.058.116.159h0a.193.193,0,0,1-.007.106,1.214,1.214,0,0,1-.239.223h0s0,0,0,0a.242.242,0,0,0,0-.033c0-.029.012-.1.011-.112h0c-.068.045-.091.181-.1.221a3.074,3.074,0,0,0-.485.332c-.059.091.408-.107.462-.13h0c.01.01.01.049.042.086a.247.247,0,0,0,.252.082.807.807,0,0,0,.365-.3c.014-.02.036-.036.056-.02a.571.571,0,0,0,.517.271c.058-.071.031-.107.007-.12-.008-.006-.126-.052-.144-.1s.016-.08.073-.109a2.529,2.529,0,0,0,.477-.091.412.412,0,0,1,.052-.164.08.08,0,0,1,.027-.029s0,0,0,0h0a.007.007,0,0,0,0,0l-.027-.016-.518,0a.065.065,0,0,1-.014-.007h0v0h0s0,0,0,0a.031.031,0,0,1,.016-.01c.125-.016.344-.052.358-.265a.183.183,0,0,0-.182-.2.185.185,0,0,0-.159.21c0,.027.01.084-.019.09-.191.019-.4.137-.406.223h-.009a.048.048,0,0,1-.026-.052,1.023,1.023,0,0,0-.131-.443c-.027-.027-.038-.037-.046-.039h0m.758.19a.063.063,0,0,1,.041.01.051.051,0,0,1,.032.043v0h0s0,0,0,0h0s0,0,0,0-.032.009-.054,0a.056.056,0,0,1-.032-.042h0s0,0,0,0v0h0l0,0a.018.018,0,0,1,.012,0m-.482.437h.006a1.516,1.516,0,0,0,.217.025c.06,0,.09.051.034.071s-.109.033-.109.114c.007.039.006.061,0,.069a0,0,0,0,1,0,0h0v0h0l0,0h0c-.014,0-.033-.013-.048-.019a.3.3,0,0,1-.144-.213.055.055,0,0,1,.054-.057" transform="translate(-103.375 -704.064)" fill="#fff"/><path d="M102.2,697.235c.06.028.172.016.167-.08,0-.009,0-.038,0-.045-.012-.029-.046-.023-.053.007,0,.009,0,.025,0,.03s-.024,0-.024-.025a.039.039,0,0,0-.01-.023.017.017,0,0,0-.013,0c-.008,0-.008,0-.012.01a.06.06,0,0,0,0,.022c0,.01-.005.013-.012.015s-.005,0-.012,0-.009-.006-.009-.013a.118.118,0,0,0,0-.023.027.027,0,0,0-.015-.008c-.033,0-.035.038-.033.052s0,.07.04.088" transform="translate(-98.024 -695.313)" fill="#fff"/><path d="M127.032,707.744c.06.027.2.012.168-.081a.4.4,0,0,0,0-.045c-.012-.029-.045-.022-.053.007,0,.01,0,.026,0,.032s-.024,0-.024-.026a.037.037,0,0,0-.01-.022.017.017,0,0,0-.013,0c-.008,0-.008,0-.013.01a.078.078,0,0,0,0,.022c0,.01,0,.013-.012.015s-.005,0-.012,0-.009-.006-.009-.013a.054.054,0,0,0,0-.023.023.023,0,0,0-.014-.009c-.032,0-.034.038-.033.052s0,.068.041.088" transform="translate(-121.105 -705.081)" fill="#fff"/><path d="M141.514,703.4c.059.028.172.015.167-.081,0-.007,0-.036,0-.045-.013-.028-.046-.022-.053.009,0,.009,0,.025-.005.029s-.024,0-.023-.024a.051.051,0,0,0-.01-.023.031.031,0,0,0-.013,0c-.008,0-.008,0-.013.009a.078.078,0,0,0,0,.023.012.012,0,0,1-.012.013c-.007,0-.006,0-.012,0s-.009-.006-.009-.013a.1.1,0,0,0,0-.025.047.047,0,0,0-.014-.006c-.033,0-.035.038-.033.051s0,.07.041.088" transform="translate(-134.566 -701.041)" fill="#fff"/><path d="M148.7,698.177a.364.364,0,0,0-.035.354.28.28,0,0,0,.129.146.089.089,0,0,0,.135-.014c.061-.064.062-.225.09-.256a.054.054,0,0,1,.1-.023.255.255,0,0,0,.087.076.147.147,0,0,0,.192.013.216.216,0,0,0,.1-.124,4.531,4.531,0,0,0,.008-.733c0-.017-.059-.3-.059-.3s-.008-.145-.014-.178c0-.014,0-.019.01-.017s.017.016.026.019.029-.023.02-.048c-.047-.087-.1-.175-.143-.26-.011-.013-.026-.025-.045,0a.1.1,0,0,0-.035.078c0,.062.015.126.019.188.019.105.038.213.057.32.018.227.023.436.041.663,0,.1-.032.224-.062.236,0,0-.042.026-.071,0a.842.842,0,0,1-.1-.139.063.063,0,0,0-.1,0,1.406,1.406,0,0,0-.178.336c-.015.023-.057.043-.1,0a.477.477,0,0,1-.063-.329" transform="translate(-141.223 -695.052)" fill="#fff"/><path d="M141.561,697.334a.194.194,0,0,1,.078.182c-.011.065-.039.138-.059.128s.015-.065-.006-.125c-.013-.039-.085-.108-.077-.13-.015-.044.031-.064.064-.055" transform="translate(-134.587 -695.537)" fill="#fff"/><path d="M148.33,698.392a1.617,1.617,0,0,0-.011-.287c0-.075-.086-.7-.1-.755-.02-.108.081-.015.069-.078-.035-.08-.122-.2-.148-.267-.017-.03-.01-.056-.047-.007a.612.612,0,0,0-.033.272,5.936,5.936,0,0,1,.164,1.309c.041,0,.089-.094.11-.188" transform="translate(-140.682 -695.201)" fill="#fff"/><path d="M164.167,699.521c.05.026.078.161.073.2-.01.071-.035.148-.054.138s0-.106-.006-.135-.077-.119-.071-.142a.047.047,0,0,1,.057-.061" transform="translate(-155.605 -697.57)" fill="#fff"/><path d="M112.785,713.612c.046.017.074.117.068.146-.009.052-.034.107-.051.1s0-.078-.006-.1c0-.053-.069-.081-.067-.1-.012-.042.027-.049.056-.044" transform="translate(-107.848 -710.667)" fill="#fff"/><path d="M95.1,696.867c.069.02.073.122.069.152-.009.054-.034.112-.052.1s0-.08-.01-.1-.068-.09-.061-.107c-.013-.036.026-.054.055-.046" transform="translate(-91.415 -695.103)" fill="#fff"/><path d="M114.4,703.546a.123.123,0,0,0-.04.164.081.081,0,0,0,.085.026c.052.007.083-.1.083-.1s0-.029-.06.026c-.026.006-.029,0-.036-.019a.132.132,0,0,1,.008-.081c.01-.026-.01-.038-.04-.019" transform="translate(-109.353 -701.304)" fill="#fff"/><path d="M119.665,696.208a.19.19,0,0,0-.08.136c0,.035-.009.035.014.058s.034.022.068,0a.07.07,0,0,0,.032-.046c.008-.041-.042.019-.049-.026s.021-.058.052-.1c0-.028,0-.046-.038-.025" transform="translate(-114.22 -694.483)" fill="#fff"/><path d="M124.974,696.461a.85.85,0,0,0-.023.158c-.01.039.042.057.064.006a.463.463,0,0,0,.036-.172c-.01-.059-.051-.057-.077.009" transform="translate(-119.209 -694.679)" fill="#fff"/><path d="M153.627,708.978l.284-.2c.028-.01.022.1.009.1a1.1,1.1,0,0,1-.293.2c-.013.009-.027-.077,0-.1" transform="translate(-145.85 -706.172)" fill="#fff"/><path d="M156.636,711.618c.049.025.068.167.063.206,0,.075-.047.136-.066.127s0-.094-.007-.124-.053-.12-.046-.143a.048.048,0,0,1,.056-.065" transform="translate(-148.606 -708.814)" fill="#fff"/><path d="M133.946,719.4a.387.387,0,0,1,.079-.068.047.047,0,0,1,.053.01c0,.026-.017.052-.01.088.005.015.01.032.037.025a.185.185,0,0,1,.128-.038c.035,0,.035.058.014.058a.964.964,0,0,0-.176.062.039.039,0,0,1-.051-.007.05.05,0,0,1-.005-.051c0-.029-.009-.045-.034-.043s-.034.017-.043,0,0-.025.007-.033" transform="translate(-127.562 -715.977)" fill="#fff"/><path d="M160.74,720.391a.035.035,0,0,1,0,.054c-.02.019-.033.028-.053.046s-.015.039.013.046c.051.015.171-.062.171-.065a.035.035,0,0,0,.011-.042c-.011-.013-.036-.006-.053-.006s-.035-.006-.022-.028a.214.214,0,0,0,.022-.042c.008-.019,0-.03-.029-.041a.257.257,0,0,0-.074,0c-.018,0-.024.013-.027.033s.021.03.042.043" transform="translate(-152.42 -716.896)" fill="#fff"/></g></g></svg>