<svg xmlns="http://www.w3.org/2000/svg" xmlns:xlink="http://www.w3.org/1999/xlink" width="12.448" height="7.261" viewBox="0 0 12.448 7.261"><defs><clipPath id="a"><rect width="12.448" height="7.261" fill="none"/></clipPath></defs><g transform="translate(0 0)"><g clip-path="url(#a)"><rect width="12.448" height="0.558" transform="translate(0 6.702)" fill="#cb001c"/><rect width="12.448" height="0.559" transform="translate(0 6.144)" fill="#fff"/><rect width="12.448" height="0.558" transform="translate(0 5.586)" fill="#cb001c"/><rect width="12.448" height="0.559" transform="translate(0 5.027)" fill="#fff"/><rect width="12.448" height="0.559" transform="translate(0 4.468)" fill="#cb001c"/><rect width="12.448" height="0.558" transform="translate(0 3.91)" fill="#fff"/><rect width="12.448" height="0.559" transform="translate(0 3.351)" fill="#cb001c"/><rect width="12.448" height="0.558" transform="translate(0 2.793)" fill="#fff"/><rect width="12.448" height="0.558" transform="translate(0 2.235)" fill="#cb001c"/><rect width="12.448" height="0.559" transform="translate(0 1.676)" fill="#fff"/><rect width="12.448" height="0.559" transform="translate(0 1.117)" fill="#cb001c"/><rect width="12.448" height="0.558" transform="translate(0 0.559)" fill="#fff"/><rect width="12.448" height="0.559" fill="#cb001c"/><rect width="5.685" height="3.91" fill="#2a3560"/><path d="M584.519,677.977l.049.149h.156l-.126.091.048.148-.126-.091-.126.091.049-.148-.126-.091h.154Z" transform="translate(-584.006 -677.546)" fill="#fff"/><path d="M584.519,687.236l.049.148h.156l-.126.091.048.148-.126-.091-.126.091.049-.148-.126-.091h.154Z" transform="translate(-584.006 -686.153)" fill="#fff"/><path d="M584.519,696.5l.049.147h.156l-.126.091.048.148-.126-.092-.126.092.049-.148-.126-.091h.154Z" transform="translate(-584.006 -694.767)" fill="#fff"/><path d="M584.519,705.752l.049.148h.156l-.126.091.048.148-.126-.091-.126.091.049-.148-.126-.091h.154Z" transform="translate(-584.006 -703.363)" fill="#fff"/><path d="M584.519,715.01l.049.148h.156l-.126.091.048.148-.126-.091-.126.091.049-.148-.126-.091h.154Z" transform="translate(-584.006 -711.968)" fill="#fff"/><path d="M590.96,682.859l.046.148h.156l-.125.091.047.148-.125-.091-.125.091.047-.148-.126-.091h.156Z" transform="translate(-589.991 -682.084)" fill="#fff"/><path d="M590.96,692.115l.046.147h.156l-.125.092.047.147-.125-.09-.125.09.047-.147-.126-.092h.156Z" transform="translate(-589.991 -690.688)" fill="#fff"/><path d="M590.96,701.375l.046.148h.156l-.125.091.047.148-.125-.091-.125.091.047-.148-.126-.091h.156Z" transform="translate(-589.991 -699.295)" fill="#fff"/><path d="M590.96,710.643l.046.147h.156l-.125.091.047.147-.125-.091-.125.091.047-.147-.126-.091h.156Z" transform="translate(-589.991 -707.909)" fill="#fff"/><path d="M597.484,677.977l.049.149h.156l-.126.091.049.148-.127-.091-.125.091.048-.148-.126-.091h.155Z" transform="translate(-596.057 -677.546)" fill="#fff"/><path d="M597.484,687.236l.049.148h.156l-.126.091.049.148-.127-.091-.125.091.048-.148-.126-.091h.155Z" transform="translate(-596.057 -686.153)" fill="#fff"/><path d="M597.484,696.5l.049.147h.156l-.126.091.049.148-.127-.092-.125.092.048-.148-.126-.091h.155Z" transform="translate(-596.057 -694.767)" fill="#fff"/><path d="M597.484,705.752l.049.148h.156l-.126.091.049.148-.127-.091-.125.091.048-.148-.126-.091h.155Z" transform="translate(-596.057 -703.363)" fill="#fff"/><path d="M597.484,715.01l.049.148h.156l-.126.091.049.148-.127-.091-.125.091.048-.148-.126-.091h.155Z" transform="translate(-596.057 -711.968)" fill="#fff"/><path d="M603.928,682.859l.048.148h.156l-.127.091.049.148-.126-.091-.125.091.049-.148-.127-.091h.156Z" transform="translate(-602.046 -682.084)" fill="#fff"/><path d="M603.928,692.115l.048.147h.156l-.127.092.049.147-.126-.09-.125.09.049-.147-.127-.092h.156Z" transform="translate(-602.046 -690.688)" fill="#fff"/><path d="M603.928,701.375l.048.148h.156l-.127.091.049.148-.126-.091-.125.091.049-.148-.127-.091h.156Z" transform="translate(-602.046 -699.295)" fill="#fff"/><path d="M603.928,710.643l.048.147h.156l-.127.091.049.147-.126-.091-.125.091.049-.147-.127-.091h.156Z" transform="translate(-602.046 -707.909)" fill="#fff"/><path d="M610.472,677.977l.049.149h.154l-.126.091.05.148-.127-.091-.126.091.048-.148-.125-.091h.155Z" transform="translate(-608.129 -677.546)" fill="#fff"/><path d="M610.472,687.236l.049.148h.154l-.126.091.05.148-.127-.091-.126.091.048-.148-.125-.091h.155Z" transform="translate(-608.129 -686.153)" fill="#fff"/><path d="M610.472,696.5l.049.147h.154l-.126.091.05.148-.127-.092-.126.092.048-.148-.125-.091h.155Z" transform="translate(-608.129 -694.767)" fill="#fff"/><path d="M610.472,705.752l.049.148h.154l-.126.091.05.148-.127-.091-.126.091.048-.148-.125-.091h.155Z" transform="translate(-608.129 -703.363)" fill="#fff"/><path d="M610.472,715.01l.049.148h.154l-.126.091.05.148-.127-.091-.126.091.048-.148-.125-.091h.155Z" transform="translate(-608.129 -711.968)" fill="#fff"/><path d="M616.914,682.859l.048.148h.155l-.125.091.047.148-.125-.091-.125.091.047-.148-.125-.091h.155Z" transform="translate(-614.116 -682.084)" fill="#fff"/><path d="M616.914,692.115l.048.147h.155l-.125.092.047.147-.125-.09-.125.09.047-.147-.125-.092h.155Z" transform="translate(-614.116 -690.688)" fill="#fff"/><path d="M616.914,701.375l.048.148h.155l-.125.091.047.148-.125-.091-.125.091.047-.148-.125-.091h.155Z" transform="translate(-614.116 -699.295)" fill="#fff"/><path d="M616.914,710.643l.048.147h.155l-.125.091.047.147-.125-.091-.125.091.047-.147-.125-.091h.155Z" transform="translate(-614.116 -707.909)" fill="#fff"/><path d="M623.441,677.977l.049.149h.155l-.125.091.049.148-.127-.091-.125.091.047-.148-.125-.091h.155Z" transform="translate(-620.184 -677.546)" fill="#fff"/><path d="M623.441,687.236l.049.148h.155l-.125.091.049.148-.127-.091-.125.091.047-.148-.125-.091h.155Z" transform="translate(-620.184 -686.153)" fill="#fff"/><path d="M623.441,696.5l.049.147h.155l-.125.091.049.148-.127-.092-.125.092.047-.148-.125-.091h.155Z" transform="translate(-620.184 -694.767)" fill="#fff"/><path d="M623.441,705.752l.049.148h.155l-.125.091.049.148-.127-.091-.125.091.047-.148-.125-.091h.155Z" transform="translate(-620.184 -703.363)" fill="#fff"/><path d="M623.441,715.01l.049.148h.155l-.125.091.049.148-.127-.091-.125.091.047-.148-.125-.091h.155Z" transform="translate(-620.184 -711.968)" fill="#fff"/><path d="M629.894,682.859l.048.148h.156l-.126.091.048.148-.126-.091-.125.091.049-.148-.126-.091h.156Z" transform="translate(-626.182 -682.084)" fill="#fff"/><path d="M629.894,692.115l.048.147h.156l-.126.092.048.147-.126-.09-.125.09.049-.147-.126-.092h.156Z" transform="translate(-626.182 -690.688)" fill="#fff"/><path d="M629.894,701.375l.048.148h.156l-.126.091.048.148-.126-.091-.125.091.049-.148-.126-.091h.156Z" transform="translate(-626.182 -699.295)" fill="#fff"/><path d="M629.894,710.643l.048.147h.156l-.126.091.048.147-.126-.091-.125.091.049-.147-.126-.091h.156Z" transform="translate(-626.182 -707.909)" fill="#fff"/><path d="M636.426,677.977l.049.149h.155l-.125.091.047.148-.125-.091-.125.091.047-.148-.125-.091h.155Z" transform="translate(-632.253 -677.546)" fill="#fff"/><path d="M636.426,687.236l.049.148h.155l-.125.091.047.148-.125-.091-.125.091.047-.148-.125-.091h.155Z" transform="translate(-632.253 -686.153)" fill="#fff"/><path d="M636.426,696.5l.049.147h.155l-.125.091.047.148-.125-.092-.125.092.047-.148-.125-.091h.155Z" transform="translate(-632.253 -694.767)" fill="#fff"/><path d="M636.426,705.752l.049.148h.155l-.125.091.047.148-.125-.091-.125.091.047-.148-.125-.091h.155Z" transform="translate(-632.253 -703.363)" fill="#fff"/><path d="M636.426,715.01l.049.148h.155l-.125.091.047.148-.125-.091-.125.091.047-.148-.125-.091h.155Z" transform="translate(-632.253 -711.968)" fill="#fff"/><path d="M642.88,682.859l.047.148h.156l-.125.091.046.148-.125-.091-.127.091.048-.148-.125-.091h.154Z" transform="translate(-638.253 -682.084)" fill="#fff"/><path d="M642.88,692.115l.047.147h.156l-.125.092.046.147-.125-.09-.127.09.048-.147-.125-.092h.154Z" transform="translate(-638.253 -690.688)" fill="#fff"/><path d="M642.88,701.375l.047.148h.156l-.125.091.046.148-.125-.091-.127.091.048-.148-.125-.091h.154Z" transform="translate(-638.253 -699.295)" fill="#fff"/><path d="M642.88,710.643l.047.147h.156l-.125.091.046.147-.125-.091-.127.091.048-.147-.125-.091h.154Z" transform="translate(-638.253 -707.909)" fill="#fff"/><path d="M649.394,677.977l.049.149h.154l-.125.091.049.148-.127-.091-.125.091.047-.148-.125-.091h.155Z" transform="translate(-644.307 -677.546)" fill="#fff"/><path d="M649.394,687.236l.049.148h.154l-.125.091.049.148-.127-.091-.125.091.047-.148-.125-.091h.155Z" transform="translate(-644.307 -686.153)" fill="#fff"/><path d="M649.394,696.5l.049.147h.154l-.125.091.049.148-.127-.092-.125.092.047-.148-.125-.091h.155Z" transform="translate(-644.307 -694.767)" fill="#fff"/><path d="M649.394,705.752l.049.148h.154l-.125.091.049.148-.127-.091-.125.091.047-.148-.125-.091h.155Z" transform="translate(-644.307 -703.363)" fill="#fff"/><path d="M649.394,715.01l.049.148h.154l-.125.091.049.148-.127-.091-.125.091.047-.148-.125-.091h.155Z" transform="translate(-644.307 -711.968)" fill="#fff"/></g></g></svg>